G04 PROTEUS GERBER X2 FILE*
%TF.GenerationSoftware,Labcenter,Proteus,8.9-SP0-Build27865*%
%TF.CreationDate,2020-02-24T18:21:19+00:00*%
%TF.FileFunction,Soldermask,Top*%
%TF.FilePolarity,Negative*%
%TF.Part,Single*%
%TF.SameCoordinates,{bab694e6-e1a7-4f03-bc32-dd160c38e7b3}*%
%FSLAX45Y45*%
%MOMM*%
G01*
%TA.AperFunction,Material*%
%ADD22C,1.016000*%
%AMPPAD015*
4,1,36,
-1.143000,1.016000,
-1.143000,-1.016000,
-1.140470,-1.041970,
-1.133200,-1.065980,
-1.121650,-1.087580,
-1.106290,-1.106290,
-1.087570,-1.121650,
-1.065980,-1.133200,
-1.041970,-1.140470,
-1.016000,-1.143000,
1.016000,-1.143000,
1.041970,-1.140470,
1.065980,-1.133200,
1.087570,-1.121650,
1.106290,-1.106290,
1.121650,-1.087580,
1.133200,-1.065980,
1.140470,-1.041970,
1.143000,-1.016000,
1.143000,1.016000,
1.140470,1.041970,
1.133200,1.065980,
1.121650,1.087580,
1.106290,1.106290,
1.087570,1.121650,
1.065980,1.133200,
1.041970,1.140470,
1.016000,1.143000,
-1.016000,1.143000,
-1.041970,1.140470,
-1.065980,1.133200,
-1.087570,1.121650,
-1.106290,1.106290,
-1.121650,1.087580,
-1.133200,1.065980,
-1.140470,1.041970,
-1.143000,1.016000,
0*%
%TA.AperFunction,Material*%
%ADD23PPAD015*%
%AMPPAD016*
4,1,4,
-1.750000,-2.050000,
1.750000,-2.050000,
1.750000,2.050000,
-1.750000,2.050000,
-1.750000,-2.050000,
0*%
%TA.AperFunction,Material*%
%ADD24PPAD016*%
%AMPPAD017*
4,1,4,
-1.750000,2.050000,
1.750000,2.050000,
1.750000,-2.050000,
-1.750000,-2.050000,
-1.750000,2.050000,
0*%
%ADD25PPAD017*%
%AMPPAD018*
4,1,4,
-2.050000,-1.750000,
-2.050000,1.750000,
2.050000,1.750000,
2.050000,-1.750000,
-2.050000,-1.750000,
0*%
%ADD26PPAD018*%
%AMPPAD019*
4,1,48,
-0.700000,0.902400,
0.700000,0.902400,
0.715840,0.901630,
0.731160,0.899370,
0.745900,0.895680,
0.759980,0.890640,
0.785890,0.876780,
0.808340,0.858340,
0.826780,0.835890,
0.840640,0.809980,
0.849370,0.781160,
0.851630,0.765840,
0.852400,0.750000,
0.852400,-0.750000,
0.851630,-0.765840,
0.849370,-0.781160,
0.840640,-0.809980,
0.826780,-0.835890,
0.808340,-0.858340,
0.785890,-0.876780,
0.759980,-0.890640,
0.745900,-0.895680,
0.731160,-0.899370,
0.715840,-0.901630,
0.700000,-0.902400,
-0.700000,-0.902400,
-0.715840,-0.901630,
-0.731160,-0.899370,
-0.745900,-0.895680,
-0.759980,-0.890640,
-0.785890,-0.876780,
-0.808340,-0.858340,
-0.826780,-0.835890,
-0.840640,-0.809980,
-0.849370,-0.781160,
-0.851630,-0.765840,
-0.852400,-0.750000,
-0.852400,0.750000,
-0.851630,0.765840,
-0.849370,0.781160,
-0.840640,0.809980,
-0.826780,0.835890,
-0.808340,0.858340,
-0.785890,0.876780,
-0.759980,0.890640,
-0.745900,0.895680,
-0.731160,0.899370,
-0.715840,0.901630,
-0.700000,0.902400,
0*%
%ADD27PPAD019*%
%AMPPAD020*
4,1,4,
0.350000,-0.575000,
-0.350000,-0.575000,
-0.350000,0.575000,
0.350000,0.575000,
0.350000,-0.575000,
0*%
%ADD28PPAD020*%
%TA.AperFunction,Profile*%
%ADD18C,0.203200*%
%TD.AperFunction*%
D22*
X+6600000Y-2940000D03*
X-1059480Y+4087222D03*
X-1257917Y+4091631D03*
X-2365611Y-361213D03*
X-2821507Y-375169D03*
X+2311279Y-2566624D03*
X+4958185Y+3255279D03*
X+4960000Y+2780000D03*
X+6086886Y-3106277D03*
X+1410000Y+4040000D03*
X+3430000Y+4000000D03*
X+2037823Y+3112689D03*
X+3297658Y+3881365D03*
X+2013203Y+4211772D03*
X+2174276Y+3918536D03*
X+2124715Y+4133300D03*
X+1596065Y+4116198D03*
X+741139Y+3773983D03*
X+315740Y+3216422D03*
X+311610Y+1357887D03*
X+2199056Y+1713074D03*
X+2636845Y+1919578D03*
X+2314699Y+2700162D03*
X+1781918Y+3902016D03*
X+3252227Y+2563869D03*
X+2888780Y+2745593D03*
X+2380000Y+3470000D03*
X+3508292Y+3464227D03*
X+3470000Y+1890000D03*
X+3268747Y+1882407D03*
X+2017333Y+3683121D03*
X+1817508Y-2572901D03*
D23*
X+1600000Y+3740000D03*
X+1600000Y+3486000D03*
X+1600000Y+3232000D03*
X+1600000Y+2978000D03*
X+1600000Y+2724000D03*
X+1600000Y+2470000D03*
X+1600000Y+2216000D03*
X+1600000Y+1962000D03*
X+1600000Y+1708000D03*
X+1600000Y+1454000D03*
X+1600000Y+1200000D03*
X+1600000Y+946000D03*
X+76000Y+3740000D03*
X+76000Y+3486000D03*
X+76000Y+3232000D03*
X+76000Y+2978000D03*
X+76000Y+2724000D03*
X+76000Y+2470000D03*
X+76000Y+2216000D03*
X+76000Y+1962000D03*
X+76000Y+1708000D03*
X+76000Y+1454000D03*
X+76000Y+1200000D03*
X+76000Y+946000D03*
D24*
X+6130000Y-3490000D03*
X+6590000Y-3490000D03*
D25*
X+2300000Y-2160000D03*
X+1840000Y-2160000D03*
X-2370000Y+180000D03*
X-2830000Y+180000D03*
X+3230000Y+4600000D03*
X+3690000Y+4600000D03*
X+2630000Y+940000D03*
X+2170000Y+940000D03*
D26*
X+4460000Y+3270000D03*
X+4460000Y+2810000D03*
X+3810000Y+2880000D03*
X+3810000Y+3340000D03*
X-660000Y+4540000D03*
X-660000Y+4080000D03*
X+40000Y+4690000D03*
X+40000Y+4230000D03*
D27*
X+2254967Y+3140000D03*
X+2534967Y+3140000D03*
D28*
X+2474967Y+2920000D03*
X+2284967Y+2920000D03*
D24*
X+1640000Y+4580000D03*
X+2100000Y+4580000D03*
D18*
X-240000Y+660000D02*
X+4078000Y+660000D01*
X+4078000Y+4978000D01*
X-240000Y+4978000D01*
X-240000Y+660000D01*
X+4180000Y+660000D02*
X+8498000Y+660000D01*
X+8498000Y+4978000D01*
X+4180000Y+4978000D01*
X+4180000Y+660000D01*
X+4200000Y-3830000D02*
X+8518000Y-3830000D01*
X+8518000Y+488000D01*
X+4200000Y+488000D01*
X+4200000Y-3830000D01*
X-4670000Y+660000D02*
X-352000Y+660000D01*
X-352000Y+4978000D01*
X-4670000Y+4978000D01*
X-4670000Y+660000D01*
X-4700000Y-3800000D02*
X-382000Y-3800000D01*
X-382000Y+518000D01*
X-4700000Y+518000D01*
X-4700000Y-3800000D01*
X-240000Y-3810000D02*
X+4078000Y-3810000D01*
X+4078000Y+508000D01*
X-240000Y+508000D01*
X-240000Y-3810000D01*
M02*
