G04 PROTEUS GERBER X2 FILE*
%TF.GenerationSoftware,Labcenter,Proteus,8.9-SP0-Build27865*%
%TF.CreationDate,2020-02-24T18:21:19+00:00*%
%TF.FileFunction,Paste,Bot*%
%TF.FilePolarity,Positive*%
%TF.Part,Single*%
%TF.SameCoordinates,{bab694e6-e1a7-4f03-bc32-dd160c38e7b3}*%
%FSLAX45Y45*%
%MOMM*%
G01*
%TA.AperFunction,Material*%
%ADD34R,1.400000X1.500000*%
%ADD36R,1.500000X1.400000*%
%ADD35R,0.700000X1.150000*%
%ADD37R,1.150000X0.700000*%
%AMPPAD032*
4,1,36,
0.500000,-1.350000,
0.500000,1.350000,
0.495030,1.401120,
0.480710,1.448390,
0.457980,1.490900,
0.427730,1.527730,
0.390900,1.557970,
0.348390,1.580710,
0.301120,1.595030,
0.250000,1.600000,
-0.250000,1.600000,
-0.301120,1.595030,
-0.348390,1.580710,
-0.390900,1.557970,
-0.427730,1.527730,
-0.457980,1.490900,
-0.480710,1.448390,
-0.495030,1.401120,
-0.500000,1.350000,
-0.500000,-1.350000,
-0.495030,-1.401120,
-0.480710,-1.448390,
-0.457980,-1.490900,
-0.427730,-1.527730,
-0.390900,-1.557970,
-0.348390,-1.580710,
-0.301120,-1.595030,
-0.250000,-1.600000,
0.250000,-1.600000,
0.301120,-1.595030,
0.348390,-1.580710,
0.390900,-1.557970,
0.427730,-1.527730,
0.457980,-1.490900,
0.480710,-1.448390,
0.495030,-1.401120,
0.500000,-1.350000,
0*%
%TA.AperFunction,Material*%
%ADD38PPAD032*%
%TA.AperFunction,Profile*%
%ADD18C,0.203200*%
%TD.AperFunction*%
D34*
X+5810000Y+1980000D03*
X+5530000Y+1980000D03*
X+7010000Y+1980000D03*
X+6730000Y+1980000D03*
X+4840000Y-2340000D03*
X+5120000Y-2340000D03*
X+4860000Y-100000D03*
X+5140000Y-100000D03*
X+7390000Y-130000D03*
X+7670000Y-130000D03*
X+7730000Y-2390000D03*
X+7450000Y-2390000D03*
X-1450000Y+4090000D03*
X-1730000Y+4090000D03*
X-1320000Y+1360000D03*
X-1600000Y+1360000D03*
X-4020000Y+1330000D03*
X-4300000Y+1330000D03*
X-4260000Y+4080000D03*
X-3980000Y+4080000D03*
X-3000000Y+2790000D03*
X-2720000Y+2790000D03*
X+5520000Y+4140000D03*
X+5800000Y+4140000D03*
X+6770000Y+4100000D03*
X+7050000Y+4100000D03*
X+7980000Y+4120000D03*
X+8260000Y+4120000D03*
X+8240000Y+1960000D03*
X+7960000Y+1960000D03*
X-2500000Y-1580000D03*
X-2780000Y-1580000D03*
X-2800000Y-2570000D03*
X-2520000Y-2570000D03*
D36*
X+3450000Y-2240000D03*
X+3450000Y-1960000D03*
D34*
X+2180000Y-700000D03*
X+1900000Y-700000D03*
D36*
X+620000Y-1970000D03*
X+620000Y-2250000D03*
D35*
X+6850000Y-2560000D03*
X+6660000Y-2560000D03*
X-2960000Y+4420000D03*
X-2770000Y+4420000D03*
D37*
X+5010000Y+2330000D03*
X+5010000Y+2520000D03*
D35*
X-2570000Y-3090000D03*
X-2760000Y-3090000D03*
X+1280000Y-2150000D03*
X+1470000Y-2150000D03*
D38*
X+3280000Y+1620000D03*
X+3780000Y+1620000D03*
X+3780000Y+940000D03*
X+3280000Y+940000D03*
D35*
X+2940000Y+1370000D03*
X+2750000Y+1370000D03*
D18*
X-240000Y+660000D02*
X+4078000Y+660000D01*
X+4078000Y+4978000D01*
X-240000Y+4978000D01*
X-240000Y+660000D01*
X+4180000Y+660000D02*
X+8498000Y+660000D01*
X+8498000Y+4978000D01*
X+4180000Y+4978000D01*
X+4180000Y+660000D01*
X+4200000Y-3830000D02*
X+8518000Y-3830000D01*
X+8518000Y+488000D01*
X+4200000Y+488000D01*
X+4200000Y-3830000D01*
X-4670000Y+660000D02*
X-352000Y+660000D01*
X-352000Y+4978000D01*
X-4670000Y+4978000D01*
X-4670000Y+660000D01*
X-4700000Y-3800000D02*
X-382000Y-3800000D01*
X-382000Y+518000D01*
X-4700000Y+518000D01*
X-4700000Y-3800000D01*
X-240000Y-3810000D02*
X+4078000Y-3810000D01*
X+4078000Y+508000D01*
X-240000Y+508000D01*
X-240000Y-3810000D01*
M02*
