G04 PROTEUS GERBER X2 FILE*
%TF.GenerationSoftware,Labcenter,Proteus,8.9-SP0-Build27865*%
%TF.CreationDate,2020-02-24T18:21:19+00:00*%
%TF.FileFunction,Copper,L1,Top*%
%TF.FilePolarity,Positive*%
%TF.Part,Single*%
%TF.SameCoordinates,{bab694e6-e1a7-4f03-bc32-dd160c38e7b3}*%
%FSLAX45Y45*%
%MOMM*%
G01*
%TA.AperFunction,Conductor*%
%ADD10C,0.254000*%
%TA.AperFunction,NonConductor*%
%ADD11C,0.254000*%
%TA.AperFunction,ViaPad*%
%ADD12C,0.762000*%
%TA.AperFunction,ComponentPad*%
%ADD13R,2.032000X2.032000*%
%TA.AperFunction,SMDPad,CuDef*%
%ADD14R,3.500000X4.100000*%
%ADD15R,4.100000X3.500000*%
%ADD16R,1.400000X1.500000*%
%ADD17R,0.700000X1.150000*%
%TA.AperFunction,Profile*%
%ADD18C,0.203200*%
%TD.AperFunction*%
D10*
X+6590000Y-3490000D02*
X+6590000Y-2950000D01*
X+6600000Y-2940000D01*
X-1059480Y+4087222D02*
X-697222Y+4087222D01*
X-670000Y+4060000D01*
X-660000Y+4080000D01*
X-660000Y+4540000D02*
X-809548Y+4540000D01*
X-1257917Y+4091631D01*
X-2365611Y-361213D02*
X-2365611Y+125611D01*
X-2380000Y+140000D01*
X-2370000Y+180000D01*
X-2830000Y+180000D02*
X-2830000Y-366676D01*
X-2821507Y-375169D01*
X+1817508Y-2572901D02*
X+1817508Y-2192110D01*
X+1821692Y-2187926D01*
X+1840000Y-2160000D01*
X+2300000Y-2160000D02*
X+2300000Y-2555345D01*
X+2311279Y-2566624D01*
X+4958185Y+3255279D02*
X+4473904Y+3255279D01*
X+4464021Y+3245396D01*
X+4460000Y+3270000D01*
X+4460000Y+2810000D02*
X+4490000Y+2780000D01*
X+4960000Y+2780000D01*
X+2474967Y+2920000D02*
X+2519934Y+2964967D01*
X+2519934Y+3065000D01*
X+2534967Y+3140000D01*
X+6086886Y-3106277D02*
X+6086886Y-3379907D01*
X+6116628Y-3409649D01*
X+6130000Y-3490000D01*
X+2100000Y+4580000D02*
X+1867124Y+4347124D01*
X+1867124Y+2716667D01*
X+1620457Y+2470000D01*
X+1600000Y+2470000D01*
X+1600000Y+2724000D02*
X+1594810Y+2724000D01*
X+1410000Y+2908810D01*
X+1410000Y+4040000D01*
X+3430000Y+4000000D02*
X+3690000Y+4260000D01*
X+3690000Y+4600000D01*
X+2037823Y+3112689D02*
X+2184967Y+3112689D01*
X+2254967Y+3140000D01*
X+3810000Y+3340000D02*
X+2410000Y+1940000D01*
X+1701600Y+1940000D01*
X+1600000Y+1962000D01*
X+3297658Y+3881365D02*
X+2967251Y+4211772D01*
X+2013203Y+4211772D01*
X+2174276Y+3918536D02*
X+2174276Y+4083739D01*
X+2124715Y+4133300D01*
X+1596065Y+4116198D02*
X+1595969Y+4116102D01*
X+1083258Y+4116102D01*
X+741139Y+3773983D01*
X+315740Y+3216422D02*
X+315740Y+1362017D01*
X+311610Y+1357887D01*
X+2170000Y+940000D02*
X+2170000Y+1684018D01*
X+2199056Y+1713074D01*
X+2630000Y+940000D02*
X+2630000Y+1912733D01*
X+2636845Y+1919578D01*
X+2314699Y+2700162D02*
X+2314699Y+2861235D01*
X+2313434Y+2862500D01*
X+2284967Y+2920000D01*
X+1781918Y+3902016D02*
X+1781918Y+4368082D01*
X+1775000Y+4375000D01*
X+1645294Y+4571960D01*
X+1640000Y+4580000D01*
X+3230000Y+4600000D02*
X+2523791Y+4600000D01*
X+2300700Y+4823091D01*
X+1896425Y+4823091D01*
X+1645294Y+4571960D01*
X+1641802Y+4568468D01*
X+1641802Y+4532903D01*
X+1640000Y+4580000D01*
X+3810000Y+2880000D02*
X+3493869Y+2563869D01*
X+3252227Y+2563869D01*
X+2888780Y+2745593D02*
X+2379106Y+2745593D01*
X+2318829Y+2805870D01*
X+2318829Y+2862500D01*
X+2284967Y+2920000D01*
X+2380000Y+3470000D02*
X+3502519Y+3470000D01*
X+3508292Y+3464227D01*
X+3470000Y+1890000D02*
X+3276340Y+1890000D01*
X+3268747Y+1882407D01*
X+40000Y+4690000D02*
X+1620000Y+4690000D01*
X+1640000Y+4670000D01*
X+1640000Y+4580000D01*
X+40000Y+4230000D02*
X+1321856Y+2948144D01*
X+1321856Y+2402581D01*
X+1547178Y+2177259D01*
X+1634974Y+2177259D01*
X+1600000Y+2216000D01*
D11*
X+2524967Y+2820000D02*
X+2384966Y+2820000D01*
D10*
X+2284967Y+2920000D02*
X+2370000Y+3005033D01*
X+2370000Y+3330455D01*
X+2017333Y+3683121D01*
D12*
X+6600000Y-2940000D03*
X-1059480Y+4087222D03*
X-1257917Y+4091631D03*
X-2365611Y-361213D03*
X-2821507Y-375169D03*
X+2311279Y-2566624D03*
X+4958185Y+3255279D03*
X+4960000Y+2780000D03*
X+6086886Y-3106277D03*
X+1410000Y+4040000D03*
X+3430000Y+4000000D03*
X+2037823Y+3112689D03*
X+3297658Y+3881365D03*
X+2013203Y+4211772D03*
X+2174276Y+3918536D03*
X+2124715Y+4133300D03*
X+1596065Y+4116198D03*
X+741139Y+3773983D03*
X+315740Y+3216422D03*
X+311610Y+1357887D03*
X+2199056Y+1713074D03*
X+2636845Y+1919578D03*
X+2314699Y+2700162D03*
X+1781918Y+3902016D03*
X+3252227Y+2563869D03*
X+2888780Y+2745593D03*
X+2380000Y+3470000D03*
X+3508292Y+3464227D03*
X+3470000Y+1890000D03*
X+3268747Y+1882407D03*
X+2017333Y+3683121D03*
X+1817508Y-2572901D03*
D13*
X+1600000Y+3740000D03*
X+1600000Y+3486000D03*
X+1600000Y+3232000D03*
X+1600000Y+2978000D03*
X+1600000Y+2724000D03*
X+1600000Y+2470000D03*
X+1600000Y+2216000D03*
X+1600000Y+1962000D03*
X+1600000Y+1708000D03*
X+1600000Y+1454000D03*
X+1600000Y+1200000D03*
X+1600000Y+946000D03*
X+76000Y+3740000D03*
X+76000Y+3486000D03*
X+76000Y+3232000D03*
X+76000Y+2978000D03*
X+76000Y+2724000D03*
X+76000Y+2470000D03*
X+76000Y+2216000D03*
X+76000Y+1962000D03*
X+76000Y+1708000D03*
X+76000Y+1454000D03*
X+76000Y+1200000D03*
X+76000Y+946000D03*
D14*
X+6130000Y-3490000D03*
X+6590000Y-3490000D03*
X+2300000Y-2160000D03*
X+1840000Y-2160000D03*
X-2370000Y+180000D03*
X-2830000Y+180000D03*
X+3230000Y+4600000D03*
X+3690000Y+4600000D03*
X+2630000Y+940000D03*
X+2170000Y+940000D03*
D15*
X+4460000Y+3270000D03*
X+4460000Y+2810000D03*
X+3810000Y+2880000D03*
X+3810000Y+3340000D03*
X-660000Y+4540000D03*
X-660000Y+4080000D03*
X+40000Y+4690000D03*
X+40000Y+4230000D03*
D16*
X+2254967Y+3140000D03*
X+2534967Y+3140000D03*
D17*
X+2474967Y+2920000D03*
X+2284967Y+2920000D03*
D14*
X+1640000Y+4580000D03*
X+2100000Y+4580000D03*
D18*
X-240000Y+660000D02*
X+4078000Y+660000D01*
X+4078000Y+4978000D01*
X-240000Y+4978000D01*
X-240000Y+660000D01*
X+4180000Y+660000D02*
X+8498000Y+660000D01*
X+8498000Y+4978000D01*
X+4180000Y+4978000D01*
X+4180000Y+660000D01*
X+4200000Y-3830000D02*
X+8518000Y-3830000D01*
X+8518000Y+488000D01*
X+4200000Y+488000D01*
X+4200000Y-3830000D01*
X-4670000Y+660000D02*
X-352000Y+660000D01*
X-352000Y+4978000D01*
X-4670000Y+4978000D01*
X-4670000Y+660000D01*
X-4700000Y-3800000D02*
X-382000Y-3800000D01*
X-382000Y+518000D01*
X-4700000Y+518000D01*
X-4700000Y-3800000D01*
X-240000Y-3810000D02*
X+4078000Y-3810000D01*
X+4078000Y+508000D01*
X-240000Y+508000D01*
X-240000Y-3810000D01*
M02*
